C:\GBW_MyPrograms\PredSimResults\Vitruvian_man\IG_v14ms.mot
version=1
nRows=13
nColumns=35
inDegrees=yes
endheader
                time	         pelvis_tilt	           pelvis_tx	           pelvis_ty	       hip_flexion_r	        knee_angle_r	       ankle_angle_r	         mtp_angle_r	       hip_flexion_l	        knee_angle_l	       ankle_angle_l	         mtp_angle_l	    lumbar_extension	          arm_flex_r	          arm_flex_l	        elbow_flex_r	        elbow_flex_l	hamstrings_r/activation	bifemsh_r/activation	glut_max_r/activation	iliopsoas_r/activation	rect_fem_r/activation	  vasti_r/activation	gastroc_r/activation	 soleus_r/activation	tib_ant_r/activation	hamstrings_l/activation	bifemsh_l/activation	glut_max_l/activation	iliopsoas_l/activation	rect_fem_l/activation	  vasti_l/activation	gastroc_l/activation	 soleus_l/activation	tib_ant_l/activation	
          1.80970889	         -2.18859248	          2.51058275	          0.94822161	        -21.11612887	         -7.22353701	          2.66837286	         22.23052454	         27.46837646	         -0.58426029	          0.40860106	          0.24963252	        -10.02280982	         31.52652936	         31.52649555	        102.03305874	        102.45645815	          0.09181896	          0.18513284	          0.05007593	          0.40276575	          0.05001376	          0.05001545	          0.29157707	          0.22638164	          0.05000779	          0.39858006	          0.05490844	          0.15413850	          0.05001603	          0.05003534	          0.05021808	          0.05066936	          0.05000799	          0.61538823	
          1.82177362	         -2.99908541	          2.53372876	          0.94633138	        -19.80353829	        -10.35995268	          1.05503288	         23.06044882	         26.63019228	          0.18850985	         -1.62974579	          0.25217608	         -8.48185160	         31.30131502	         31.29936850	        104.63129451	        105.00902721	          0.09006881	          0.15420313	          0.05005484	          0.33533908	          0.05001194	          0.05000884	          0.24276381	          0.18848258	          0.05000576	          0.36343827	          0.06019414	          0.18791470	          0.05001394	          0.05003291	          0.05017643	          0.05001226	          0.05000485	          0.78683187	
          1.83383834	         -3.81178713	          2.55642464	          0.94542807	        -18.08178412	        -14.02209398	         -1.12627378	         23.58474028	         25.90041380	          0.82212506	         -3.60235796	          0.19377695	         -6.96457217	         30.66898859	         30.65669612	        106.89631697	        107.23720337	          0.08260982	          0.13623564	          0.05002822	          0.27919967	          0.05000749	          0.05000383	          0.20212238	          0.15692815	          0.05001389	          0.33436460	          0.05058825	          0.22004783	          0.05001214	          0.05003397	          0.05039344	          0.05001299	          0.05000545	          0.88185238	
          1.84590307	         -4.61584767	          2.57838814	          0.94561571	        -16.00065471	        -18.09901663	         -3.66215131	         23.25168171	         25.32857025	          1.15310727	         -5.02558928	          0.14966659	         -5.51756069	         29.62147032	         29.59233608	        108.82745748	        109.13739501	          0.06879033	          0.11348640	          0.05001536	          0.23245867	          0.05000944	          0.05000290	          0.16828505	          0.13065640	          0.05003133	          0.30683129	          0.05050842	          0.24542261	          0.05001689	          0.05004413	          0.05036396	          0.05001264	          0.05000585	          0.93451502	
          1.85796780	         -5.39233513	          2.59963632	          0.94682199	        -13.68853651	        -22.41815986	         -6.21838132	         21.53242572	         24.86910402	          1.23265416	         -5.91954232	          0.11478200	         -4.15815036	         28.14202256	         28.09217860	        110.44546764	        110.72618465	          0.05728201	          0.09451305	          0.05001422	          0.19354305	          0.05001794	          0.05000388	          0.14011295	          0.10878300	          0.27867721	          0.28379303	          0.05027425	          0.27369166	          0.05001340	          0.05003732	          0.05082533	          0.05001539	          0.05000809	          0.96370059	
          1.87003252	         -6.12514863	          2.62026323	          0.94881046	        -11.30571986	        -26.71873683	         -7.86311183	         18.54718528	         24.47438236	          1.11413928	         -6.31866133	          0.07967680	         -2.89040763	         26.24254697	         26.17076638	        111.78066110	        112.02956967	          0.05001349	          0.07874869	          0.05001030	          0.16114367	          0.05020169	          0.05000426	          0.11665877	          0.09057190	          0.37484128	          0.25417319	          0.05029528	          0.28056510	          0.05002091	          0.05005868	          0.05086931	          0.05001857	          0.05000972	          0.97986832	
          1.88209725	         -6.79944461	          2.64042424	          0.95142198	         -9.00483088	        -30.68887522	         -7.61456008	         15.86663280	         24.09418219	          0.85117551	         -6.25781574	          0.01922855	         -1.71292472	         23.93911295	         23.84685448	        112.85584605	        113.06749735	          0.05002601	          0.08639117	          0.05000859	          0.13417233	          0.12302501	          0.05000382	          0.09713343	          0.07540999	          0.39609979	          0.23085485	          0.05056062	          0.28811915	          0.05002234	          0.05005074	          0.05041891	          0.05002343	          0.05001380	          0.93392095	
          1.89416197	         -7.40357204	          2.66030853	          0.95464194	         -6.87381621	        -34.07890470	         -7.31508456	         13.60265272	         23.66488607	          0.51989171	         -5.73978911	         -0.07738859	         -0.62119409	         21.24529915	         21.13584010	        113.68052443	        113.84910420	          0.05002673	          0.11164760	          0.05000877	          0.11241877	          0.17983994	          0.05000417	          0.08089478	          0.06278795	          0.38020300	          0.20377506	          0.05061686	          0.28347135	          0.05002234	          0.05004831	          0.05041674	          0.05002555	          0.05001406	          0.81917244	
          1.90622670	         -7.92833844	          2.68001852	          0.95837708	         -4.95584867	        -36.84161317	         -6.60809427	         11.64774616	         23.12929814	          0.22712526	         -5.01426346	         -0.16271383	          0.37987735	         18.20917736	         18.08674097	        114.27011450	        114.39224268	          0.05003388	          0.14104106	          0.05000889	          0.11337274	          0.21542501	          0.05000487	          0.06743727	          0.05228261	          0.34967428	          0.17996609	          0.05078220	          0.26963529	          0.05001977	          0.05004106	          0.05035969	          0.05002276	          0.05001235	          0.70161736	
          1.91829143	         -8.36384242	          2.69963569	          0.96245727	         -3.25584471	        -39.00315743	         -5.78635719	          9.99438827	         22.44637004	          0.04457252	         -4.28876284	         -0.22584581	          1.28141401	         14.89399243	         14.76259733	        114.65327206	        114.72943424	          0.05004755	          0.18374376	          0.05000992	          0.11807163	          0.23287031	          0.05000574	          0.05618450	          0.05000896	          0.32394992	          0.15698781	          0.05049103	          0.24560764	          0.05001627	          0.05003560	          0.05043392	          0.05002075	          0.05001235	          0.60333691	
          1.93035615	         -8.70247492	          2.71917871	          0.96669169	         -1.74719397	        -40.65806863	         -5.12738895	          8.57685313	         21.60475012	         -0.01488616	         -3.63769832	         -0.26971535	          2.06906000	         11.37181262	         11.23535696	        114.86732918	        114.90243357	          0.05007099	          0.23003794	          0.05001127	          0.12392793	          0.23694306	          0.05000676	          0.05009864	          0.05001332	          0.31165115	          0.13635673	          0.05032732	          0.21573535	          0.05001346	          0.05003122	          0.05061745	          0.05001966	          0.05001297	          0.52648966	
          1.94242088	         -8.93962337	          2.73860621	          0.97091000	         -0.38857707	        -41.93989587	         -4.55934669	          7.35707795	         20.61572165	          0.02615714	         -3.07504747	         -0.30073628	          2.72487853	          7.71592386	          7.57769184	        114.95125773	        114.95409504	          0.05012472	          0.27561288	          0.05001279	          0.12980046	          0.23384973	          0.05000768	          0.05009163	          0.05001257	          0.30892120	          0.11787285	          0.05024817	          0.18630016	          0.05001163	          0.05002814	          0.05106585	          0.05001921	          0.05001400	          0.46705630	
          1.95448560	         -9.07373387	          2.75784652	          0.97498343	          0.86769032	        -42.98045573	         -4.05082035	          6.30791942	         19.50075033	          0.13241919	         -2.58619083	         -0.32365243	          3.23212163	          3.99391569	          3.85511570	        114.93551313	        114.91709693	          0.05023133	          0.31403696	          0.05001431	          0.13472016	          0.22802945	          0.05000848	          0.05008166	          0.05001295	          0.30980368	          0.10116831	          0.05020407	          0.16094252	          0.05001049	          0.05002629	          0.05268064	          0.05001920	          0.05001531	          0.41972932	
